<?xml version="1.0" encoding="UTF-8" standalone="no"?>
<!-- Created with Inkscape (http://www.inkscape.org/) -->

<svg
   xmlns:dc="http://purl.org/dc/elements/1.1/"
   xmlns:cc="http://creativecommons.org/ns#"
   xmlns:rdf="http://www.w3.org/1999/02/22-rdf-syntax-ns#"
   xmlns:svg="http://www.w3.org/2000/svg"
   xmlns="http://www.w3.org/2000/svg"
   xmlns:sodipodi="http://sodipodi.sourceforge.net/DTD/sodipodi-0.dtd"
   xmlns:inkscape="http://www.inkscape.org/namespaces/inkscape"
   id="svg5769"
   sodipodi:version="0.32"
   inkscape:version="0.47 r22583"
   width="92.049385"
   height="98.561813"
   version="1.0"
   sodipodi:docname="winged_star.svg"
   inkscape:export-filename="C:\Mario\Strella\estrella_1.gif"
   inkscape:export-xdpi="90"
   inkscape:export-ydpi="90">
  <metadata
     id="metadata5774">
    <rdf:RDF>
      <cc:Work
         rdf:about="">
        <dc:format>image/svg+xml</dc:format>
        <dc:type
           rdf:resource="http://purl.org/dc/dcmitype/StillImage" />
      </cc:Work>
    </rdf:RDF>
  </metadata>
  <defs
     id="defs5772" />
  <sodipodi:namedview
     inkscape:window-height="740"
     inkscape:window-width="1272"
     inkscape:pageshadow="2"
     inkscape:pageopacity="0.0"
     guidetolerance="10.0"
     gridtolerance="10.0"
     objecttolerance="10.0"
     borderopacity="1.0"
     bordercolor="#666666"
     pagecolor="#ffffff"
     id="base"
     inkscape:zoom="4"
     inkscape:cx="26.253968"
     inkscape:cy="19.741912"
     inkscape:window-x="0"
     inkscape:window-y="0"
     inkscape:current-layer="svg5769"
     width="650px"
     height="650px"
     showgrid="false"
     inkscape:window-maximized="0" />
  <g
     id="object"
     transform="matrix(0.15340302,0,0,0.15340302,-4.8324063,-0.53756731)">
    <path
       sodipodi:nodetypes="cssssscccsssscccssssssssscccssssscccsscccssssssssssssssssssssssssssssscccscccssscccsssscccsssssssssssscccssccc"
       id="path5842"
       d="M 203.54475,645.21638 238.879,542.59328 c -15.00399,9.34398 -31.23761,16.53056 -47.94575,22.37737 -4.5952,1.39082 -4.69273,1.17778 -3.34723,-7.31184 0.76224,-4.8094 2.66602,-13.84943 4.23063,-20.08889 3.97346,-15.84561 3.83759,-16.40565 -3.10871,-12.81359 -6.63256,3.42983 -36.76944,11.05783 -43.77404,11.07972 l -4.50499,0.0141 4.81453,-12.79101 c 2.64798,-7.03505 6.3247,-15.71139 8.17049,-19.28073 1.84578,-3.56936 3.06316,-6.77791 2.70529,-7.13015 -0.35787,-0.35223 -5.17292,0.15883 -10.70012,1.13565 -13.46517,2.37973 -48.032666,5.72109 -49.044517,4.74073 -1.464109,-1.41852 14.363887,-23.71272 24.275597,-34.19291 l 9.73015,-10.28819 -20.61908,-1.13273 c -18.205485,-1.00013 -49.018872,-6.07236 -51.409021,-8.46251 -2.005407,-2.0054 13.018478,-12.8937 39.834451,-28.86928 2.349,-1.39942 1.25925,-2.53431 -4.934261,-5.13866 -13.108543,-5.51213 -28.422025,-18.42945 -38.362532,-32.35982 -8.60901,-12.06444 -20.8359,-36.89175 -20.965315,-42.5711 -0.03345,-1.46774 4.957537,-0.11382 12.965778,3.51731 7.161083,3.24698 13.437924,5.90361 13.948533,5.90361 0.510608,0 -3.03276,-7.46172 -7.874151,-16.58159 C 41.113377,310.024 34.094601,284.88705 32.518124,259.12154 31.092778,235.82607 32.161047,234.23653 41.455743,245.82262 l 5.965555,7.43623 -1.000589,-19.12939 c -0.994136,-19.00596 2.460497,-59.65519 5.320796,-62.60756 0.82222,-0.84869 4.429342,2.543 8.015826,7.53709 3.586482,4.99409 6.690791,9.07737 6.898465,9.07393 0.207672,-0.003 0.563049,-5.65623 0.789726,-12.56181 0.404195,-12.31357 9.323244,-51.18783 12.474014,-54.36881 0.880044,-0.88849 3.649289,3.14808 6.153873,8.97014 l 4.55379,10.58557 6.483675,-18.15915 c 9.787196,-27.411493 24.905636,-55.346683 34.069376,-62.951913 2.76144,-2.29179 3.18445,-1.97607 3.18445,2.37673 0,2.76077 0.56728,7.85597 1.26062,11.32266 l 1.26061,6.30308 16.07829,-17.18486 c 25.06735,-26.79257 45.03088,-36.126808 64.79356,-46.822439 11.69333,-6.3284667 29.40117,-11.8867137 28.48466,-10.2971647 -0.57153,0.9912337 -3.5464,4.3155479 -7.63616,10.1856637 -19.12037,27.44383 -37.78417,58.04004 -47.09258,89.442623 -6.9171,23.33529 -8.78397,57.85633 -4.18469,77.3807 7.29992,30.98882 18.61671,48.34422 57.43539,88.08284 30.44921,31.17083 40.34207,46.03015 40.34207,60.59473 0,10.70719 -2.65842,16.49145 -12.0065,26.12401 -4.48427,4.62072 -8.70212,10.58839 -9.37302,13.26146 -1.94258,7.73987 0.58829,18.07169 6.24282,25.48514 5.12094,6.7139 20.7286,18.45244 22.36232,16.81873 0.45492,-0.4549 9.09439,-22.45558 19.19883,-48.8904 10.10444,-26.4348 19.00242,-48.77897 19.7733,-49.65367 0.77089,-0.87473 9.7557,20.37986 19.96629,47.23241 10.21056,26.85254 19.23975,49.52315 20.06483,50.37913 2.18907,2.27103 19.18549,-11.34547 24.11243,-19.31742 4.63694,-7.50272 5.50439,-19.24399 1.92725,-26.08614 -1.26236,-2.41456 -5.75396,-8.18058 -9.98134,-12.81335 -8.65406,-9.48397 -10.84629,-15.70259 -9.17225,-26.01849 2.31812,-14.28498 10.2112,-25.70515 37.2301,-53.86675 39.73414,-41.41463 47.23131,-51.8634 57.02247,-79.47216 5.01268,-14.13458 7.01431,-50.4663 3.79793,-68.93618 -6.35307,-36.482023 -28.19098,-81.506163 -53.17894,-109.641273 -5.14446,-5.79238 -9.35355,-10.90488 -9.35355,-11.36111 0,-1.80738 21.93088,5.62513 35.99965,12.20049 21.19059,9.90393 36.79984,21.69749 57.82321,43.68831 19.7127,20.61985 20.64231,20.79327 20.71344,3.86418 0.0151,-3.59267 0.70578,-6.50417 1.53486,-6.46999 2.21335,0.09125 13.13959,15.2917 20.62487,28.69306 3.58538,6.41912 9.94919,21.342563 14.14182,33.163183 l 7.62295,21.49205 4.48735,-10.64659 c 2.46804,-5.85562 5.16917,-9.92565 6.00251,-9.0445 2.84313,3.00627 10.08483,30.67697 12.64466,48.31562 l 2.55465,17.60295 5.67177,-8.54204 c 3.11947,-4.69812 6.35429,-8.54203 7.18848,-8.54203 2.68248,0 6.31809,38.54305 5.64055,59.7986 -0.36124,11.33317 -0.20458,20.60383 0.34814,20.60145 0.55271,-0.002 3.99946,-3.39601 7.65941,-7.54147 l 6.65446,-7.53716 -0.93578,21.10384 c -1.27994,28.86544 -5.78169,46.44682 -18.27366,71.36708 -11.74196,23.424 -11.75901,23.39235 7.40793,13.75911 8.5114,-4.27781 9.54698,-4.42315 9.54698,-1.33982 0,1.90216 -4.10263,11.8919 -9.11695,22.19942 -10.76077,22.12007 -27.64718,40.59705 -45.52515,49.81324 l -11.42944,5.89195 14.44427,8.44205 c 15.78258,9.22421 29.15927,19.75219 27.39533,21.56119 -2.46262,2.52555 -32.1821,7.65007 -50.63647,8.73125 -10.77804,0.63144 -19.59643,1.42949 -19.59643,1.77342 0,0.34394 3.64648,4.50855 8.10327,9.2547 8.64834,9.20982 24.05497,30.99904 24.05497,34.02033 0,1.00054 -2.03501,1.40415 -4.52225,0.89689 -2.48724,-0.50723 -11.75786,-1.48157 -20.60138,-2.16515 -8.84351,-0.68361 -20.04304,-2.12544 -24.88784,-3.20409 -4.84482,-1.07867 -9.20405,-1.5659 -9.68721,-1.08275 -0.48314,0.48316 1.1051,4.76652 3.52941,9.51858 2.42433,4.75207 6.0565,13.432 8.07151,19.28874 3.14018,9.12703 3.23625,10.6486 0.67235,10.6486 -6.8368,0 -34.60821,-6.62472 -42.74883,-10.19752 l -8.7737,-3.85063 1.24459,4.51172 c 3.16736,11.48188 7.7793,37.82386 6.79457,38.80857 -13.88765,3.51612 -53.85416,-28.78121 -50.86628,-19.8469 l 33.52155,100.23559 -125.82024,-87.55204 -128.87259,87.25745 z"
       style="fill:#000000" />
    <path
       sodipodi:nodetypes="ccsssssssssssssssssssssssssscsssssssssssssscccsssssssssssscc"
       id="path5840"
       d="m 330.63291,544.98396 109.72684,77.29145 -43.94884,-117.38697 c -0.98617,-2.63404 4.55355,-9.6494 7.68675,-3.31666 5.46034,11.03637 30.25907,33.94634 45.47209,42.0088 6.97967,3.69902 13.07068,6.34512 13.53559,5.88021 1.81557,-1.81557 -5.45119,-24.3619 -12.1201,-37.60458 -3.86291,-7.67071 -11.08814,-18.93707 -16.05609,-25.03636 -11.13819,-13.67469 -8.51944,-16.88466 3.30739,-4.05407 15.26799,16.56383 42.13024,33.30483 60.67497,37.81367 6.91071,1.68021 6.56191,-0.0338 -3.3572,-16.49796 -9.08858,-15.08559 -20.81022,-28.82299 -33.09491,-38.7862 -14.77285,-11.98117 -9.24604,-13.7583 6.27013,-2.01614 14.3803,10.88255 27.77098,17.01722 48.99186,22.44461 16.22785,4.15038 22.6723,4.8326 22.5908,2.39149 -0.1026,-3.07248 -13.2957,-18.50263 -21.84234,-25.54593 -4.85559,-4.00153 -14.92924,-10.89996 -22.38585,-15.32985 -16.00168,-9.50642 -25.85457,-15.53921 -21.70696,-22.74113 41.86624,-72.69678 1.61897,-131.24792 13.10798,-161.73672 10.83313,-28.74827 40.50777,-16.63382 46.83424,-118.93579 1.71259,-27.82929 -14.66842,-49.321153 -35.8935,-72.484573 -11.042,-12.0504 -44.48852,-39.84378 -44.48852,-36.96906 7.21026,10.33751 13.99372,20.90541 19.80813,32.1686 21.82428,44.082373 25.4513,86.522993 11.07906,129.637923 -9.86293,29.58753 -24.50484,51.01061 -58.65651,85.82233 -34.72781,35.39901 -39.32067,49.27692 -22.59607,68.27705 17.49215,19.87215 15.17451,34.04282 -9.30714,56.90596 -17.6267,16.46141 -26.44979,23.0245 -27.41434,20.67086 l -35.11704,-85.69036 -36.3443,87.1614 c -1.17657,2.82164 -38.14639,-32.24437 -42.16472,-38.74616 -9.12123,-16.44937 -1.78591,-30.55311 8.6458,-43.51258 14.13656,-16.92036 8.86161,-30.11191 -26.92336,-67.32949 -36.72763,-38.19798 -53.74868,-66.21183 -61.60825,-101.39697 -4.98075,-22.29744 -3.06663,-59.95638 4.20123,-82.656563 6.20738,-19.38791 16.98316,-41.07507 26.81494,-53.96732 7.8726,-10.32322 6.62661,-9.73593 -15.20429,7.16647 -29.18062,22.59288 -50.3486,52.218573 -57.85351,80.968993 -4.41659,16.91944 -3.1045,50.14943 2.61925,66.33539 7.78638,22.0187 15.69812,36.90891 35.11919,60.72531 9.94366,11.49022 12.05165,31.92598 5.3829,51.34873 -15.76812,45.92464 -2.93601,79.06172 14.21353,114.04897 2.51236,5.12554 -4.63742,15.14922 -20.8018,24.67745 -17.92189,10.56418 -38.11277,28.102 -42.80939,37.18425 l -3.08296,5.9618 9.73086,-1.36459 c 23.72158,-3.32651 50.55303,-14.70687 66.32657,-28.13187 13.95788,-11.87968 13.56565,-5.40205 -0.45058,7.44127 -7.34486,6.73024 -16.69592,16.81808 -20.78011,22.41741 -9.74339,13.35795 -18.90617,29.3193 -17.58786,30.6376 1.68516,1.68515 15.29511,-3.2936 30.46021,-11.14289 8.45124,-4.37426 20.1663,-13.09423 29.33819,-21.83756 8.39793,-8.00553 15.80847,-14.01599 16.46788,-13.35658 0.6594,0.6594 -3.2181,6.9618 -8.61668,14.00532 -11.38121,14.84908 -20.51899,33.13078 -24.77176,49.56015 -3.46583,13.38928 -2.66939,13.85918 10.51953,6.2064 21.01957,-12.19646 48.41395,-38.5587 48.41395,-46.58986 0,-1.27969 4.74418,-3.30956 4.40363,-2.32671 L 222.73528,618.7581 330.63291,544.98396 z"
       style="fill:#000000;fill-opacity:1;stroke:none;stroke-width:0pt;marker-start:none" />
    <path
       id="redstar"
       d="m 331.12281,529.60876 -84.20425,58.07431 32.70268,-95.21806 -58.73044,-43.501 81.29974,-2.55399 29.41661,-72.29597 30.31161,73.30092 79.90148,1.50742 -60.4253,50.41146 33.75866,90.03912 -84.03079,-59.76421 z"
       style="fill:#ff0000;fill-opacity:1;stroke:none" />
    <path
       sodipodi:nodetypes="cssccccscccccssscssscssccssc"
       id="path5836"
       d="m 123.31031,100.5205 c -0.9751,0.24809 -3.6737,4.51687 -7.78833,12.68743 -12.35388,24.53153 -21.401344,42.05674 -16.283553,70.14543 1.107543,6.07867 1.213323,20.15109 8.299403,38.2002 -18.014671,-14.36812 -23.263787,-50.84814 -23.546,-61.55287 l -0.125618,-5.02473 -2.198317,5.02473 c -3.269732,7.58854 -13.942469,44.26888 -1.378101,76.4226 7.248759,18.55046 7.954797,22.5786 16.606844,35.84308 C 83.157099,254.49084 76.186402,251.38015 68.269861,226.57274 l -5.633113,-23.17098 -1.444609,14.6345 c -2.74712,27.87892 5.239418,72.38705 27.451894,103.80616 -18.928816,-17.52671 -20.123187,-20.42193 -33.858419,-40.36901 -2.92798,-4.9962 -5.765918,-8.68015 -6.280907,-8.16518 -1.558563,1.55857 3.619029,23.54345 8.730461,37.18297 5.992925,15.99171 26.398444,51.6791 39.710121,63.08925 -13.293301,-1.33582 -16.11058,-3.05584 -26.475262,-7.81727 -8.189655,-3.76225 -13.540523,-6.41491 -14.051377,-5.90405 -2.18228,2.18228 10.783203,21.96396 21.041037,29.70869 12.465283,9.41139 30.473633,19.65815 46.010103,28.94822 -17.55394,6.4244 -36.806068,22.08665 -34.390425,24.5023 5.721837,5.72183 55.032515,4.30182 75.810545,-2.19832 9.17687,-2.04864 23.16234,-10.18647 16.70721,-20.53857 -43.4029,-90.37959 2.54465,-106.68881 -13.44114,-157.33671 -25.8668,-27.2397 -42.5589,-62.50232 -47.92332,-101.24821 -2.33257,-16.84765 -1.30225,-42.12407 2.19832,-54.32984 1.37686,-4.80083 1.63773,-7.03914 0.87933,-6.84619 z"
       style="fill:#ffffff;fill-opacity:1" />
    <path
       sodipodi:nodetypes="cssccccscccccssscssscssccssc"
       id="path1893"
       d="m 539.47704,101.65133 c 0.9751,0.24808 3.6737,4.51686 7.78833,12.68743 12.35387,24.53151 21.40133,42.05672 16.28354,70.14543 -1.10753,6.07867 -1.21331,20.15108 -8.2994,38.2002 18.01467,-14.36812 23.26378,-50.84814 23.54601,-61.55288 l 0.12562,-5.02473 2.19831,5.02473 c 3.26973,7.58854 13.94247,44.26887 1.37811,76.42261 -7.24877,18.55046 -7.95481,22.5786 -16.60686,35.84307 13.73955,-17.77553 20.71025,-20.88622 28.62678,-45.69363 l 5.63312,-23.17099 1.44461,14.63451 c 2.74712,27.87892 -5.23942,72.38706 -27.4519,103.80616 18.92882,-17.5267 20.12318,-20.42193 33.85842,-40.369 2.92797,-4.99621 5.76592,-8.68016 6.28091,-8.16518 1.55855,1.55857 -3.61903,23.54345 -8.73046,37.18296 -5.99293,15.99172 -26.39846,51.6791 -39.71012,63.08925 13.29329,-1.33581 16.11057,-3.05584 26.47526,-7.81727 8.18965,-3.76225 13.54053,-6.4149 14.05138,-5.90405 2.18228,2.18228 -10.7832,21.96396 -21.04104,29.70869 -12.4653,9.41139 -30.47363,19.65815 -46.0101,28.94823 17.55394,6.42439 36.80605,22.08664 34.39042,24.50229 -5.72183,5.72184 -55.03252,4.30183 -75.81054,-2.19832 -9.32848,-2.03676 -23.48514,-9.7624 -16.70721,-20.53856 43.40289,-90.3796 -2.54466,-106.68881 13.44114,-157.33672 25.8668,-27.2397 42.5589,-62.50231 47.92332,-101.24821 2.33257,-16.84765 1.30224,-42.12407 -2.19832,-54.32983 -1.37688,-4.80085 -1.63774,-7.03916 -0.87933,-6.84619 z"
       style="fill:#ffffff;fill-opacity:1" />
  </g>
  <g
     id="outline"
     transform="matrix(0.15340302,0,0,0.15340302,-4.8342063,-0.53653731)">
    <path
       style="fill:none;stroke:#000000;stroke-opacity:1"
       d="m 414.28125,684 c -0.36096,0.0153 -0.53125,0.11181 -0.53125,0.28125 0,0.45623 4.19929,5.55137 9.34375,11.34375 24.98796,28.13511 46.83443,73.17423 53.1875,109.65625 3.21638,18.46988 1.20018,54.80292 -3.8125,68.9375 -9.79116,27.60876 -17.29711,38.05412 -57.03125,79.46875 -27.0189,28.1616 -34.90063,39.59002 -37.21875,53.875 -1.67404,10.3159 0.53344,16.516 9.1875,26 4.22738,4.6328 8.70639,10.3979 9.96875,12.8125 3.57714,6.8421 2.69944,18.591 -1.9375,26.0938 -4.92694,7.9719 -21.90468,21.5835 -24.09375,19.3124 -0.82508,-0.8559 -9.85194,-23.5224 -20.0625,-50.375 -10.21059,-26.8525 -19.19786,-48.09343 -19.96875,-47.2187 -0.77088,0.8747 -9.67681,23.2215 -19.78125,49.6563 -10.10444,26.4348 -18.73258,48.42 -19.1875,48.875 -1.63372,1.6337 -17.25406,-10.0987 -22.375,-16.8126 -5.65453,-7.4134 -8.19258,-17.7601 -6.25,-25.5 0.6709,-2.673 4.89073,-8.6292 9.375,-13.25 9.34808,-9.6325 12,-15.4178 12,-26.125 0,-14.56453 -9.89454,-29.42287 -40.34375,-60.5937 -38.81868,-39.73862 -50.10633,-57.10493 -57.40625,-88.09375 -4.59928,-19.52437 -2.76085,-54.03971 4.15625,-77.375 9.30841,-31.40258 27.97338,-61.99367 47.09375,-89.4375 4.08976,-5.87012 7.08472,-9.19627 7.65625,-10.1875 0.91651,-1.58955 -16.80667,3.98403 -28.5,10.3125 -19.76268,10.69563 -39.7139,20.01993 -64.78125,46.8125 l -16.09375,17.1875 -1.25,-6.3125 c -0.69334,-3.46669 -1.25,-8.55173 -1.25,-11.3125 0,-4.3528 -0.42606,-4.66679 -3.1875,-2.375 -9.16374,7.60523 -24.2753,35.52601 -34.0625,62.9375 l -6.5,18.15625 -4.5625,-10.5625 c -2.504584,-5.82206 -5.276206,-9.88849 -6.15625,-9 -3.15077,3.18098 -12.064555,42.06143 -12.46875,54.375 -0.226677,6.90558 -0.573578,12.5595 -0.78125,12.5625 -0.207674,0.003 -3.319768,-4.06841 -6.90625,-9.0625 -3.586484,-4.99409 -7.17778,-8.37994 -8,-7.53125 -2.860299,2.95237 -6.337886,43.58779 -5.34375,62.59375 l 1,19.125 -5.9375,-7.4375 c -9.294696,-11.58609 -10.362846,-9.98297 -8.9375,13.3125 1.576477,25.76551 8.586145,50.89398 20.4375,73.2188 4.841391,9.1198 8.385608,16.5937 7.875,16.5937 -0.510609,0 -6.807667,-2.6593 -13.96875,-5.9063 -8.008241,-3.6311 -12.97095,-4.9989 -12.9375,-3.5312 0.129415,5.6794 12.32849,30.5293 20.9375,42.5938 9.940507,13.9303 25.266457,26.8316 38.375,32.3437 6.193511,2.6044 7.2865,3.7568 4.9375,5.1563 -26.815973,15.9755 -41.849157,26.8383 -39.84375,28.8437 2.390149,2.3902 33.200765,7.4686 51.40625,8.4687 l 20.625,1.125 -9.71875,10.3126 c -9.91171,10.4801 -25.745359,32.7689 -24.28125,34.1874 1.011851,0.9804 35.56608,-2.3702 49.03125,-4.75 5.5272,-0.9768 10.36088,-1.4772 10.71875,-1.125 0.35787,0.3523 -0.87297,3.5557 -2.71875,7.125 -1.84579,3.5694 -5.50827,12.2463 -8.15625,19.2813 l -4.8125,12.7813 4.5,0 c 7.0046,-0.022 37.14869,-7.664 43.78125,-11.0938 6.9463,-3.5921 7.06721,-3.0331 3.09375,12.8125 -1.56461,6.2395 -3.45651,15.2844 -4.21875,20.0937 -1.3455,8.4897 -1.25145,8.7034 3.34375,7.3126 16.70814,-5.8469 32.93351,-13.0311 47.9375,-22.375 l -35.34375,102.625 128.875,-87.25 L 458.25,1325.5 424.71875,1225.2812 c -2.98788,-8.9343 36.98735,23.3599 50.875,19.8438 0.98473,-0.9847 -3.64514,-27.3306 -6.8125,-38.8125 l -1.25,-4.5 8.78125,3.8437 c 8.14062,3.5729 35.9132,10.1876 42.75,10.1876 2.5639,0 2.48393,-1.5293 -0.65625,-10.6563 -2.01501,-5.8567 -5.66942,-14.5292 -8.09375,-19.2813 -2.42431,-4.752 -4.01439,-9.0168 -3.53125,-9.5 0.48316,-0.4831 4.84268,-0.016 9.6875,1.0626 4.8448,1.0786 16.06274,2.5351 24.90625,3.2187 8.84352,0.6836 18.10651,1.649 20.59375,2.1563 2.48724,0.5072 4.53125,0.094 4.53125,-0.9063 0,-3.0213 -15.41416,-24.7902 -24.0625,-34 -4.45679,-4.7461 -8.09375,-8.9061 -8.09375,-9.25 0,-0.3439 8.81571,-1.1498 19.59375,-1.7813 18.45437,-1.0811 48.16238,-6.2244 50.625,-8.75 1.76394,-1.8089 -11.62367,-12.3382 -27.40625,-21.5624 l -14.4375,-8.4376 11.4375,-5.875 c 17.87797,-9.2161 34.77048,-27.6924 45.53125,-49.8124 5.01432,-10.3076 9.125,-20.3166 9.125,-22.2188 0,-3.0833 -1.0511,-2.9341 -9.5625,1.3438 -19.16694,9.6332 -19.14821,9.6739 -7.40625,-13.75 12.49197,-24.92031 17.00131,-42.50961 18.28125,-71.37505 l 0.9375,-21.09375 -6.65625,7.53125 c -3.65995,4.14546 -7.10354,7.52925 -7.65625,7.53125 -0.55272,0.002 -0.73624,-9.26058 -0.375,-20.59375 0.67754,-21.25555 -2.94252,-59.78125 -5.625,-59.78125 -0.83419,0 -4.06803,3.83313 -7.1875,8.53125 l -5.6875,8.53125 -2.53125,-17.59375 c -2.55983,-17.63865 -9.81312,-45.30623 -12.65625,-48.3125 -0.83334,-0.88115 -3.53196,3.17563 -6,9.03125 l -4.5,10.65625 -7.625,-21.5 c -4.19263,-11.82062 -10.53962,-26.73713 -14.125,-33.15625 -7.48528,-13.40136 -18.41165,-28.59625 -20.625,-28.6875 -0.82908,-0.0342 -1.51615,2.87608 -1.53125,6.46875 -0.0711,16.92909 -1.00605,16.74485 -20.71875,-3.875 C 486.53913,718.16543 470.94059,706.37268 449.75,696.46875 437.00018,690.50983 417.77048,683.8517 414.28125,684 z"
       transform="translate(0,-680)"
       id="path2838" />
  </g>
</svg>
